<?xml version="1.0" encoding="utf-8"?>
<!-- Generator: Adobe Illustrator 17.1.0, SVG Export Plug-In . SVG Version: 6.00 Build 0)  -->
<!DOCTYPE svg PUBLIC "-//W3C//DTD SVG 1.1//EN" "http://www.w3.org/Graphics/SVG/1.1/DTD/svg11.dtd">
<svg version="1.1" id="图层_1" xmlns="http://www.w3.org/2000/svg" xmlns:xlink="http://www.w3.org/1999/xlink" x="0px" y="0px"
	 viewBox="0 0 80 80" enable-background="new 0 0 80 80" xml:space="preserve">
<g>
	<path fill="#FFFFFF" d="M12.6,51.7v-5L3.8,48l-0.3-2.1l1.6-0.2v-19H3.9v-2.1h11.9v2.1h-1.2v17.5l1.5-0.2l0.3,2.1l-1.8,0.3v5.3H12.6
		z M7.2,31.4h5.4v-4.6H7.2V31.4z M7.2,38.1h5.4v-4.7H7.2V38.1z M7.2,45.4l5.4-0.8v-4.4H7.2V45.4z M15.7,32.4l2.5-5.6
		c0.4-0.9,0.9-1.6,1.5-2.1c0.6-0.5,1.4-0.7,2.5-0.7h2.6c1.1,0,1.9,0.2,2.5,0.7c0.6,0.5,1.1,1.2,1.5,2.1l2.5,5.6l-1.9,0.8l-2.5-5.6
		c-0.2-0.5-0.5-0.9-0.8-1.2c-0.3-0.3-0.8-0.4-1.3-0.4h-2.6c-0.5,0-1,0.1-1.3,0.4c-0.3,0.3-0.6,0.6-0.8,1.2l-2.5,5.6L15.7,32.4z
		 M18.5,43.9l4.5,3c1.2-1.2,2.3-2.5,3.2-4c0.9-1.5,1.6-3,2-4.5H16.1v-2.1h14.6c-0.3,2.3-1.1,4.5-2.2,6.5c-1.1,2-2.4,3.8-3.8,5.3
		l2.8,1.8l-1.2,1.7l-9-6.1L18.5,43.9z M24.1,30.2V35h-2.1v-4.8H24.1z"/>
	<path fill="#FFFFFF" d="M41.5,36.6c0.4,0.4,0.6,0.9,0.6,1.4c0,0.5-0.2,1-0.6,1.4c-0.4,0.4-0.8,0.6-1.4,0.6s-1-0.2-1.4-0.6
		c-0.4-0.4-0.6-0.9-0.6-1.4c0-0.5,0.2-1,0.6-1.4c0.4-0.4,0.8-0.6,1.4-0.6S41.1,36.3,41.5,36.6z"/>
	<path fill="#FFFFFF" d="M71.5,30.2l-1.3,3.7h5.7v2.1H49.9v-2.1h5.7l-1.3-3.6l1.9-0.7l1.6,4.4H68l1.6-4.3L71.5,30.2z M63.9,24.1v2.5
		h11v2.1h-24v-2.1h11v-2.5H63.9z M55,51.7c-0.4,0-0.9-0.1-1.3-0.3c-0.4-0.2-0.7-0.4-1-0.7c-0.3-0.3-0.5-0.6-0.7-1
		c-0.2-0.4-0.3-0.8-0.3-1.3v-7.5c0-0.4,0.1-0.9,0.3-1.3c0.2-0.4,0.4-0.7,0.7-1c0.3-0.3,0.6-0.5,1-0.7c0.4-0.2,0.8-0.3,1.3-0.3h15.6
		c0.4,0,0.9,0.1,1.3,0.3c0.4,0.2,0.7,0.4,1,0.7c0.3,0.3,0.5,0.6,0.7,1c0.2,0.4,0.3,0.8,0.3,1.3v7.5c0,0.4-0.1,0.9-0.3,1.3
		c-0.2,0.4-0.4,0.7-0.7,1c-0.3,0.3-0.6,0.5-1,0.7c-0.4,0.2-0.8,0.3-1.3,0.3H55z M53.9,43.7h17.9v-2.7c0-0.3-0.1-0.6-0.3-0.9
		c-0.2-0.2-0.5-0.3-0.8-0.3H55c-0.3,0-0.6,0.1-0.8,0.3c-0.2,0.2-0.3,0.5-0.3,0.9V43.7z M70.6,49.6c0.3,0,0.6-0.1,0.8-0.3
		s0.3-0.5,0.3-0.8v-2.7H53.9v2.7c0,0.3,0.1,0.6,0.3,0.8c0.2,0.2,0.5,0.3,0.8,0.3H70.6z"/>
</g>
</svg>
